<svg xmlns="http://www.w3.org/2000/svg" xmlns:xlink="http://www.w3.org/1999/xlink" id="processonSvg1000" viewBox="167.88999938964844 331.0 1740.1100006103516 1041.375" width="1740.1100006103516" height="1041.375"><defs id="ProcessOnDefs1001"><marker id="ProcessOnMarker1041" markerUnits="userSpaceOnUse" orient="auto" markerWidth="16.23606797749979" markerHeight="10.550836550532098" viewBox="-1.0 -1.3763819204711736 16.23606797749979 10.550836550532098" refX="-1.0" refY="3.8990363547948754"><path id="ProcessOnPath1042" d="M12.0 3.8990363547948754L0.0 7.798072709589751V0.0Z" stroke="#323232" stroke-width="2.0" fill="#fff" transform="matrix(1.0,0.0,0.0,1.0,0.0,0.0)"/></marker><marker id="ProcessOnMarker1045" markerUnits="userSpaceOnUse" orient="auto" markerWidth="16.23606797749979" markerHeight="10.550836550532098" viewBox="-1.0 -1.3763819204711736 16.23606797749979 10.550836550532098" refX="-1.0" refY="3.8990363547948754"><path id="ProcessOnPath1046" d="M12.0 3.8990363547948754L0.0 7.798072709589751V0.0Z" stroke="#323232" stroke-width="2.0" fill="#fff" transform="matrix(1.0,0.0,0.0,1.0,0.0,0.0)"/></marker><marker id="ProcessOnMarker1150" markerUnits="userSpaceOnUse" orient="auto" markerWidth="14.289086868996552" markerHeight="19.055054660878554" viewBox="-0.5877852522924731 -0.8090169943749475 14.289086868996552 19.055054660878554" refX="12.0" refY="8.71851033606433"><path id="ProcessOnPath1151" d="M0 0L12.0 8.71851033606433L0 17.43702067212866" stroke="#323232" stroke-width="2.0" fill="none" transform="matrix(1.0,0.0,0.0,1.0,0.0,0.0)"/></marker><marker id="ProcessOnMarker1189" markerUnits="userSpaceOnUse" orient="auto" markerWidth="14.289086868996552" markerHeight="19.055054660878554" viewBox="-0.5877852522924731 -0.8090169943749475 14.289086868996552 19.055054660878554" refX="12.0" refY="8.71851033606433"><path id="ProcessOnPath1190" d="M0 0L12.0 8.71851033606433L0 17.43702067212866" stroke="#323232" stroke-width="2.0" fill="none" transform="matrix(1.0,0.0,0.0,1.0,0.0,0.0)"/></marker><marker id="ProcessOnMarker1193" markerUnits="userSpaceOnUse" orient="auto" markerWidth="14.289086868996552" markerHeight="19.055054660878554" viewBox="-0.5877852522924731 -0.8090169943749475 14.289086868996552 19.055054660878554" refX="12.0" refY="8.71851033606433"><path id="ProcessOnPath1194" d="M0 0L12.0 8.71851033606433L0 17.43702067212866" stroke="#323232" stroke-width="2.0" fill="none" transform="matrix(1.0,0.0,0.0,1.0,0.0,0.0)"/></marker><marker id="ProcessOnMarker1213" markerUnits="userSpaceOnUse" orient="auto" markerWidth="20.609529741924973" markerHeight="10.888175666885001" viewBox="-2.3047648709624866 -1.5914908829822711 20.609529741924973 10.888175666885001" refX="16.0" refY="3.8525969504602293"><path id="ProcessOnPath1214" d="M0 3.8525969504602293L8.0 0L16.0 3.8525969504602293L8.0 7.705193900920459Z" stroke="#323232" stroke-width="2.0" fill="#323232"/></marker><marker id="ProcessOnMarker1215" markerUnits="userSpaceOnUse" orient="auto" markerWidth="14.289086868996552" markerHeight="19.055054660878554" viewBox="-0.5877852522924731 -0.8090169943749475 14.289086868996552 19.055054660878554" refX="12.0" refY="8.71851033606433"><path id="ProcessOnPath1216" d="M0 0L12.0 8.71851033606433L0 17.43702067212866" stroke="#323232" stroke-width="2.0" fill="none" transform="matrix(1.0,0.0,0.0,1.0,0.0,0.0)"/></marker><marker id="ProcessOnMarker1231" markerUnits="userSpaceOnUse" orient="auto" markerWidth="14.289086868996552" markerHeight="19.055054660878554" viewBox="-0.5877852522924731 -0.8090169943749475 14.289086868996552 19.055054660878554" refX="12.0" refY="8.71851033606433"><path id="ProcessOnPath1232" d="M0 0L12.0 8.71851033606433L0 17.43702067212866" stroke="#323232" stroke-width="2.0" fill="none" transform="matrix(1.0,0.0,0.0,1.0,0.0,0.0)"/></marker><marker id="ProcessOnMarker1235" markerUnits="userSpaceOnUse" orient="auto" markerWidth="14.289086868996552" markerHeight="19.055054660878554" viewBox="-0.5877852522924731 -0.8090169943749475 14.289086868996552 19.055054660878554" refX="12.0" refY="8.71851033606433"><path id="ProcessOnPath1236" d="M0 0L12.0 8.71851033606433L0 17.43702067212866" stroke="#323232" stroke-width="2.0" fill="none" transform="matrix(1.0,0.0,0.0,1.0,0.0,0.0)"/></marker><marker id="ProcessOnMarker1239" markerUnits="userSpaceOnUse" orient="auto" markerWidth="20.609529741924973" markerHeight="10.888175666885001" viewBox="-2.3047648709624866 -1.5914908829822711 20.609529741924973 10.888175666885001" refX="16.0" refY="3.8525969504602293"><path id="ProcessOnPath1240" d="M0 3.8525969504602293L8.0 0L16.0 3.8525969504602293L8.0 7.705193900920459Z" stroke="#323232" stroke-width="2.0" fill="#323232"/></marker><marker id="ProcessOnMarker1241" markerUnits="userSpaceOnUse" orient="auto" markerWidth="14.289086868996552" markerHeight="19.055054660878554" viewBox="-0.5877852522924731 -0.8090169943749475 14.289086868996552 19.055054660878554" refX="12.0" refY="8.71851033606433"><path id="ProcessOnPath1242" d="M0 0L12.0 8.71851033606433L0 17.43702067212866" stroke="#323232" stroke-width="2.0" fill="none" transform="matrix(1.0,0.0,0.0,1.0,0.0,0.0)"/></marker><marker id="ProcessOnMarker1245" markerUnits="userSpaceOnUse" orient="auto" markerWidth="14.289086868996552" markerHeight="19.055054660878554" viewBox="-0.5877852522924731 -0.8090169943749475 14.289086868996552 19.055054660878554" refX="12.0" refY="8.71851033606433"><path id="ProcessOnPath1246" d="M0 0L12.0 8.71851033606433L0 17.43702067212866" stroke="#323232" stroke-width="2.0" fill="none" transform="matrix(1.0,0.0,0.0,1.0,0.0,0.0)"/></marker><marker id="ProcessOnMarker1249" markerUnits="userSpaceOnUse" orient="auto" markerWidth="16.23606797749979" markerHeight="10.550836550532098" viewBox="-1.0 -1.3763819204711736 16.23606797749979 10.550836550532098" refX="-1.0" refY="3.8990363547948754"><path id="ProcessOnPath1250" d="M12.0 3.8990363547948754L0.0 7.798072709589751V0.0Z" stroke="#323232" stroke-width="2.0" fill="#323232" transform="matrix(1.0,0.0,0.0,1.0,0.0,0.0)"/></marker><marker id="ProcessOnMarker1253" markerUnits="userSpaceOnUse" orient="auto" markerWidth="16.23606797749979" markerHeight="10.550836550532098" viewBox="-1.0 -1.3763819204711736 16.23606797749979 10.550836550532098" refX="-1.0" refY="3.8990363547948754"><path id="ProcessOnPath1254" d="M12.0 3.8990363547948754L0.0 7.798072709589751V0.0Z" stroke="#323232" stroke-width="2.0" fill="#fff" transform="matrix(1.0,0.0,0.0,1.0,0.0,0.0)"/></marker><marker id="ProcessOnMarker1257" markerUnits="userSpaceOnUse" orient="auto" markerWidth="16.23606797749979" markerHeight="10.550836550532098" viewBox="-1.0 -1.3763819204711736 16.23606797749979 10.550836550532098" refX="-1.0" refY="3.8990363547948754"><path id="ProcessOnPath1258" d="M12.0 3.8990363547948754L0.0 7.798072709589751V0.0Z" stroke="#323232" stroke-width="2.0" fill="#fff" transform="matrix(1.0,0.0,0.0,1.0,0.0,0.0)"/></marker><marker id="ProcessOnMarker1261" markerUnits="userSpaceOnUse" orient="auto" markerWidth="16.23606797749979" markerHeight="10.550836550532098" viewBox="-1.0 -1.3763819204711736 16.23606797749979 10.550836550532098" refX="-1.0" refY="3.8990363547948754"><path id="ProcessOnPath1262" d="M12.0 3.8990363547948754L0.0 7.798072709589751V0.0Z" stroke="#323232" stroke-width="2.0" fill="#fff" transform="matrix(1.0,0.0,0.0,1.0,0.0,0.0)"/></marker></defs><g id="ProcessOnG1002"><path id="ProcessOnPath1003" d="M167.88999938964844 331.0H1908.0V1372.375H167.88999938964844V331.0Z" fill="none"/><g id="ProcessOnG1004"><g id="ProcessOnG1005" transform="matrix(1.0,0.0,0.0,1.0,1406.0,691.0)" opacity="1.0"><path id="ProcessOnPath1006" d="M0.0 4.0Q0.0 0.0 4.0 0.0L226.0 0.0Q230.0 0.0 230.0 4.0L230.0 56.0Q230.0 60.0 226.0 60.0L4.0 60.0Q0.0 60.0 0.0 56.0Z" stroke="#323232" stroke-width="2.0" stroke-dasharray="none" opacity="1.0" fill="#ffffff"/><path id="ProcessOnPath1007" d="M0.0 30.0L230.0 30.0" stroke="#323232" stroke-width="2.0" stroke-dasharray="none" opacity="1.0" fill="none"/><path id="ProcessOnPath1008" d="M0.0 0.0L230.0 0.0L230.0 60.0L0.0 60.0Z" stroke="none" stroke-width="0.0" stroke-dasharray="none" opacity="1.0" fill="none"/><g id="ProcessOnG1009" transform="matrix(1.0,0.0,0.0,1.0,10.0,6.875)"><text id="ProcessOnText1010" fill="#000000" font-size="13" x="104.0" y="13.325" font-family="微软雅黑" font-weight="bold" font-style="normal" text-decoration="none" family="微软雅黑" text-anchor="middle" size="13">AbstractVisitor</text></g><g id="ProcessOnG1011" transform="matrix(1.0,0.0,0.0,1.0,10.0,36.875)"><text id="ProcessOnText1012" fill="#000000" font-size="13" x="104.0" y="13.325" font-family="微软雅黑" font-weight="bold" font-style="normal" text-decoration="none" family="微软雅黑" text-anchor="middle" size="13">+ visit(QChar element):bool</text></g></g><g id="ProcessOnG1013" transform="matrix(1.0,0.0,0.0,1.0,1581.0,826.0)" opacity="1.0"><path id="ProcessOnPath1014" d="M0.0 4.0Q0.0 0.0 4.0 0.0L226.0 0.0Q230.0 0.0 230.0 4.0L230.0 86.0Q230.0 90.0 226.0 90.0L4.0 90.0Q0.0 90.0 0.0 86.0Z" stroke="#323232" stroke-width="2.0" stroke-dasharray="none" opacity="1.0" fill="#ffffff"/><path id="ProcessOnPath1015" d="M0.0 30.0L230.0 30.0M0.0 60.0L230.0 60.0" stroke="#323232" stroke-width="2.0" stroke-dasharray="none" opacity="1.0" fill="none"/><path id="ProcessOnPath1016" d="M0.0 0.0L230.0 0.0L230.0 90.0L0.0 90.0Z" stroke="none" stroke-width="0.0" stroke-dasharray="none" opacity="1.0" fill="none"/><g id="ProcessOnG1017" transform="matrix(1.0,0.0,0.0,1.0,10.0,6.875)"><text id="ProcessOnText1018" fill="#000000" font-size="13" x="104.0" y="13.325" font-family="微软雅黑" font-weight="bold" font-style="normal" text-decoration="none" family="微软雅黑" text-anchor="middle" size="13">DisplayVisitor</text></g><g id="ProcessOnG1019" transform="matrix(1.0,0.0,0.0,1.0,10.0,36.875)"><text id="ProcessOnText1020" fill="#000000" font-size="13" x="104.0" y="13.325" font-family="微软雅黑" font-weight="bold" font-style="normal" text-decoration="none" family="微软雅黑" text-anchor="middle" size="13">- background                 :TextFile*</text></g><g id="ProcessOnG1021" transform="matrix(1.0,0.0,0.0,1.0,10.0,66.875)"><text id="ProcessOnText1022" fill="#000000" font-size="13" x="104.0" y="13.325" font-family="微软雅黑" font-weight="bold" font-style="normal" text-decoration="none" family="微软雅黑" text-anchor="middle" size="13">+ visit(QChar element)  :bool</text></g></g><g id="ProcessOnG1023" transform="matrix(1.0,0.0,0.0,1.0,1191.0,826.0)" opacity="1.0"><path id="ProcessOnPath1024" d="M0.0 4.0Q0.0 0.0 4.0 0.0L314.0 0.0Q318.0 0.0 318.0 4.0L318.0 159.0Q318.0 163.0 314.0 163.0L4.0 163.0Q0.0 163.0 0.0 159.0Z" stroke="#323232" stroke-width="2.0" stroke-dasharray="none" opacity="1.0" fill="#ffffff"/><path id="ProcessOnPath1025" d="M0.0 30.0L318.0 30.0M0.0 111.0L318.0 111.0" stroke="#323232" stroke-width="2.0" stroke-dasharray="none" opacity="1.0" fill="none"/><path id="ProcessOnPath1026" d="M0.0 0.0L318.0 0.0L318.0 163.0L0.0 163.0Z" stroke="none" stroke-width="0.0" stroke-dasharray="none" opacity="1.0" fill="none"/><g id="ProcessOnG1027" transform="matrix(1.0,0.0,0.0,1.0,10.0,6.875)"><text id="ProcessOnText1028" fill="#000000" font-size="13" x="148.0" y="13.325" font-family="微软雅黑" font-weight="bold" font-style="normal" text-decoration="none" family="微软雅黑" text-anchor="middle" size="13">SearchVisitor</text></g><g id="ProcessOnG1029" transform="matrix(1.0,0.0,0.0,1.0,10.0,29.875)"><text id="ProcessOnText1030" fill="#000000" font-size="13" x="148.0" y="13.325" font-family="微软雅黑" font-weight="bold" font-style="normal" text-decoration="none" family="微软雅黑" text-anchor="middle" size="13">- target       : QString</text><text id="ProcessOnText1031" fill="#000000" font-size="13" x="148.0" y="29.575" font-family="微软雅黑" font-weight="bold" font-style="normal" text-decoration="none" family="微软雅黑" text-anchor="middle" size="13">- sensitivity : Qt::CaseSensitivity</text><text id="ProcessOnText1032" fill="#000000" font-size="13" x="148.0" y="45.825" font-family="微软雅黑" font-weight="bold" font-style="normal" text-decoration="none" family="微软雅黑" text-anchor="middle" size="13">- next          : int []</text><text id="ProcessOnText1033" fill="#000000" font-size="13" x="148.0" y="62.075" font-family="微软雅黑" font-weight="bold" font-style="normal" text-decoration="none" family="微软雅黑" text-anchor="middle" size="13">- index        : int</text><text id="ProcessOnText1034" fill="#000000" font-size="13" x="148.0" y="78.325" font-family="微软雅黑" font-weight="bold" font-style="normal" text-decoration="none" family="微软雅黑" text-anchor="middle" size="13">- result        : std::vector&lt;std::pair&lt;int,int&gt;&gt;</text></g><g id="ProcessOnG1035" transform="matrix(1.0,0.0,0.0,1.0,10.0,111.125)"><text id="ProcessOnText1036" fill="#000000" font-size="13" x="148.0" y="13.325" font-family="微软雅黑" font-weight="bold" font-style="normal" text-decoration="none" family="微软雅黑" text-anchor="middle" size="13">+ visit(QChar element) : bool</text><text id="ProcessOnText1037" fill="#000000" font-size="13" x="148.0" y="29.575" font-family="微软雅黑" font-weight="bold" font-style="normal" text-decoration="none" family="微软雅黑" text-anchor="middle" size="13">+ getResult() : std::vector&lt;std::pair&lt;int,int&gt;&gt;</text><text id="ProcessOnText1038" fill="#000000" font-size="13" x="148.0" y="45.825" font-family="微软雅黑" font-weight="bold" font-style="normal" text-decoration="none" family="微软雅黑" text-anchor="middle" size="13">- equal(QChar a, QChar b) : bool</text></g></g><g id="ProcessOnG1039"><path id="ProcessOnPath1040" d="M1696.0 826.0L1696.0 788.5L1521.0 788.5L1521.0 766.2360679774998" stroke="#323232" stroke-width="2.0" stroke-dasharray="10.0 4.0" fill="none" marker-end="url(#ProcessOnMarker1041)"/></g><g id="ProcessOnG1043"><path id="ProcessOnPath1044" d="M1350.0 826.0L1350.0 788.5L1521.0 788.5L1521.0 766.2360679774998" stroke="#323232" stroke-width="2.0" stroke-dasharray="10.0 4.0" fill="none" marker-end="url(#ProcessOnMarker1045)"/></g><g id="ProcessOnG1047" transform="matrix(1.0,0.0,0.0,1.0,644.8899993896484,916.0)" opacity="1.0"><path id="ProcessOnPath1048" d="M0.0 4.0Q0.0 0.0 4.0 0.0L226.0 0.0Q230.0 0.0 230.0 4.0L230.0 75.0Q230.0 79.0 226.0 79.0L4.0 79.0Q0.0 79.0 0.0 75.0Z" stroke="#323232" stroke-width="2.0" stroke-dasharray="none" opacity="1.0" fill="#ffffff"/><path id="ProcessOnPath1049" d="M0.0 30.0L230.0 30.0" stroke="#323232" stroke-width="2.0" stroke-dasharray="none" opacity="1.0" fill="none"/><path id="ProcessOnPath1050" d="M0.0 0.0L230.0 0.0L230.0 79.0L0.0 79.0Z" stroke="none" stroke-width="0.0" stroke-dasharray="none" opacity="1.0" fill="none"/><g id="ProcessOnG1051" transform="matrix(1.0,0.0,0.0,1.0,10.0,6.875)"><text id="ProcessOnText1052" fill="#000000" font-size="13" x="104.0" y="13.325" font-family="微软雅黑" font-weight="bold" font-style="normal" text-decoration="none" family="微软雅黑" text-anchor="middle" size="13">EditCommand</text></g><g id="ProcessOnG1053" transform="matrix(1.0,0.0,0.0,1.0,10.0,30.125)"><text id="ProcessOnText1054" fill="#000000" font-size="13" x="104.0" y="13.325" font-family="微软雅黑" font-weight="bold" font-style="normal" text-decoration="none" family="微软雅黑" text-anchor="middle" size="13">+ operator()() : void</text><text id="ProcessOnText1055" fill="#000000" font-size="13" x="104.0" y="29.575" font-family="微软雅黑" font-weight="bold" font-style="normal" text-decoration="none" family="微软雅黑" text-anchor="middle" size="13">+ undo() : void</text><text id="ProcessOnText1056" fill="#000000" font-size="13" x="104.0" y="45.825" font-family="微软雅黑" font-weight="bold" font-style="normal" text-decoration="none" family="微软雅黑" text-anchor="middle" size="13">+ redo() : void</text></g></g><g id="ProcessOnG1057" transform="matrix(1.0,0.0,0.0,1.0,359.0,1080.0)" opacity="1.0"><path id="ProcessOnPath1058" d="M0.0 4.0Q0.0 0.0 4.0 0.0L226.0 0.0Q230.0 0.0 230.0 4.0L230.0 268.0Q230.0 272.0 226.0 272.0L4.0 272.0Q0.0 272.0 0.0 268.0Z" stroke="#323232" stroke-width="2.0" stroke-dasharray="none" opacity="1.0" fill="#ffffff"/><path id="ProcessOnPath1059" d="M0.0 30.0L230.0 30.0M0.0 159.0L230.0 159.0" stroke="#323232" stroke-width="2.0" stroke-dasharray="none" opacity="1.0" fill="none"/><path id="ProcessOnPath1060" d="M0.0 0.0L230.0 0.0L230.0 272.0L0.0 272.0Z" stroke="none" stroke-width="0.0" stroke-dasharray="none" opacity="1.0" fill="none"/><g id="ProcessOnG1061" transform="matrix(1.0,0.0,0.0,1.0,10.0,6.875)"><text id="ProcessOnText1062" fill="#000000" font-size="13" x="104.0" y="13.325" font-family="微软雅黑" font-weight="bold" font-style="normal" text-decoration="none" family="微软雅黑" text-anchor="middle" size="13">InsertCommand</text></g><g id="ProcessOnG1063" transform="matrix(1.0,0.0,0.0,1.0,10.0,29.5)"><text id="ProcessOnText1064" fill="#000000" font-size="13" x="104.0" y="13.325" font-family="微软雅黑" font-weight="bold" font-style="normal" text-decoration="none" family="微软雅黑" text-anchor="middle" size="13">- token : enum {CHA, STR}</text><text id="ProcessOnText1065" fill="#000000" font-size="13" x="104.0" y="29.575" font-family="微软雅黑" font-weight="bold" font-style="normal" text-decoration="none" family="微软雅黑" text-anchor="middle" size="13">- begin : std::pair&lt;int,int&gt;</text><text id="ProcessOnText1066" fill="#000000" font-size="13" x="104.0" y="45.825" font-family="微软雅黑" font-weight="bold" font-style="normal" text-decoration="none" family="微软雅黑" text-anchor="middle" size="13">- end : std::pair&lt;int,int&gt;</text><text id="ProcessOnText1067" fill="#000000" font-size="13" x="104.0" y="62.075" font-family="微软雅黑" font-weight="bold" font-style="normal" text-decoration="none" family="微软雅黑" text-anchor="middle" size="13">- charater : QChar</text><text id="ProcessOnText1068" fill="#000000" font-size="13" x="104.0" y="78.325" font-family="微软雅黑" font-weight="bold" font-style="normal" text-decoration="none" family="微软雅黑" text-anchor="middle" size="13">- chunk : QString</text><text id="ProcessOnText1069" fill="#000000" font-size="13" x="104.0" y="94.575" font-family="微软雅黑" font-weight="bold" font-style="normal" text-decoration="none" family="微软雅黑" text-anchor="middle" size="13">- invoker : TextFile *</text><text id="ProcessOnText1070" fill="#000000" font-size="13" x="104.0" y="110.825" font-family="微软雅黑" font-weight="bold" font-style="normal" text-decoration="none" family="微软雅黑" text-anchor="middle" size="13">- receiver ： std::shared_ptr&lt;Text</text><text id="ProcessOnText1071" fill="#000000" font-size="13" x="104.0" y="127.075" font-family="微软雅黑" font-weight="bold" font-style="normal" text-decoration="none" family="微软雅黑" text-anchor="middle" size="13">Structure&gt;</text></g><g id="ProcessOnG1072" transform="matrix(1.0,0.0,0.0,1.0,10.0,158.625)"><text id="ProcessOnText1073" fill="#000000" font-size="13" x="104.0" y="13.325" font-family="微软雅黑" font-weight="bold" font-style="normal" text-decoration="none" family="微软雅黑" text-anchor="middle" size="13">+ operator()() : void</text><text id="ProcessOnText1074" fill="#000000" font-size="13" x="104.0" y="29.575" font-family="微软雅黑" font-weight="bold" font-style="normal" text-decoration="none" family="微软雅黑" text-anchor="middle" size="13">+ undo() : void</text><text id="ProcessOnText1075" fill="#000000" font-size="13" x="104.0" y="45.825" font-family="微软雅黑" font-weight="bold" font-style="normal" text-decoration="none" family="微软雅黑" text-anchor="middle" size="13">+ redo() : void</text><text id="ProcessOnText1076" fill="#000000" font-size="13" x="104.0" y="62.075" font-family="微软雅黑" font-weight="bold" font-style="normal" text-decoration="none" family="微软雅黑" text-anchor="middle" size="13">- insert() : void</text><text id="ProcessOnText1077" fill="#000000" font-size="13" x="104.0" y="78.325" font-family="微软雅黑" font-weight="bold" font-style="normal" text-decoration="none" family="微软雅黑" text-anchor="middle" size="13">- erase() : void</text><text id="ProcessOnText1078" fill="#000000" font-size="13" x="104.0" y="94.575" font-family="微软雅黑" font-weight="bold" font-style="normal" text-decoration="none" family="微软雅黑" text-anchor="middle" size="13">- sendInsertSignal() : void</text><text id="ProcessOnText1079" fill="#000000" font-size="13" x="104.0" y="110.825" font-family="微软雅黑" font-weight="bold" font-style="normal" text-decoration="none" family="微软雅黑" text-anchor="middle" size="13">- sendEraseSignal() : void</text></g></g><g id="ProcessOnG1080" transform="matrix(1.0,0.0,0.0,1.0,644.8899993896484,1080.0)" opacity="1.0"><path id="ProcessOnPath1081" d="M0.0 4.0Q0.0 0.0 4.0 0.0L226.0 0.0Q230.0 0.0 230.0 4.0L230.0 268.0Q230.0 272.0 226.0 272.0L4.0 272.0Q0.0 272.0 0.0 268.0Z" stroke="#323232" stroke-width="2.0" stroke-dasharray="none" opacity="1.0" fill="#ffffff"/><path id="ProcessOnPath1082" d="M0.0 30.0L230.0 30.0M0.0 159.0L230.0 159.0" stroke="#323232" stroke-width="2.0" stroke-dasharray="none" opacity="1.0" fill="none"/><path id="ProcessOnPath1083" d="M0.0 0.0L230.0 0.0L230.0 272.0L0.0 272.0Z" stroke="none" stroke-width="0.0" stroke-dasharray="none" opacity="1.0" fill="none"/><g id="ProcessOnG1084" transform="matrix(1.0,0.0,0.0,1.0,10.0,6.875)"><text id="ProcessOnText1085" fill="#000000" font-size="13" x="104.0" y="13.325" font-family="微软雅黑" font-weight="bold" font-style="normal" text-decoration="none" family="微软雅黑" text-anchor="middle" size="13">EraseCommand</text></g><g id="ProcessOnG1086" transform="matrix(1.0,0.0,0.0,1.0,10.0,29.5)"><text id="ProcessOnText1087" fill="#000000" font-size="13" x="104.0" y="13.325" font-family="微软雅黑" font-weight="bold" font-style="normal" text-decoration="none" family="微软雅黑" text-anchor="middle" size="13">- token : enum {CHA, STR}</text><text id="ProcessOnText1088" fill="#000000" font-size="13" x="104.0" y="29.575" font-family="微软雅黑" font-weight="bold" font-style="normal" text-decoration="none" family="微软雅黑" text-anchor="middle" size="13">- begin : std::pair&lt;int,int&gt;</text><text id="ProcessOnText1089" fill="#000000" font-size="13" x="104.0" y="45.825" font-family="微软雅黑" font-weight="bold" font-style="normal" text-decoration="none" family="微软雅黑" text-anchor="middle" size="13">- end : std::pair&lt;int,int&gt;</text><text id="ProcessOnText1090" fill="#000000" font-size="13" x="104.0" y="62.075" font-family="微软雅黑" font-weight="bold" font-style="normal" text-decoration="none" family="微软雅黑" text-anchor="middle" size="13">- charater : QChar</text><text id="ProcessOnText1091" fill="#000000" font-size="13" x="104.0" y="78.325" font-family="微软雅黑" font-weight="bold" font-style="normal" text-decoration="none" family="微软雅黑" text-anchor="middle" size="13">- chunk : QString</text><text id="ProcessOnText1092" fill="#000000" font-size="13" x="104.0" y="94.575" font-family="微软雅黑" font-weight="bold" font-style="normal" text-decoration="none" family="微软雅黑" text-anchor="middle" size="13">- invoker : TextFile *</text><text id="ProcessOnText1093" fill="#000000" font-size="13" x="104.0" y="110.825" font-family="微软雅黑" font-weight="bold" font-style="normal" text-decoration="none" family="微软雅黑" text-anchor="middle" size="13">- receiver ： std::shared_ptr&lt;Text</text><text id="ProcessOnText1094" fill="#000000" font-size="13" x="104.0" y="127.075" font-family="微软雅黑" font-weight="bold" font-style="normal" text-decoration="none" family="微软雅黑" text-anchor="middle" size="13">Structure&gt;</text></g><g id="ProcessOnG1095" transform="matrix(1.0,0.0,0.0,1.0,10.0,158.625)"><text id="ProcessOnText1096" fill="#000000" font-size="13" x="104.0" y="13.325" font-family="微软雅黑" font-weight="bold" font-style="normal" text-decoration="none" family="微软雅黑" text-anchor="middle" size="13">+ operator()() : void</text><text id="ProcessOnText1097" fill="#000000" font-size="13" x="104.0" y="29.575" font-family="微软雅黑" font-weight="bold" font-style="normal" text-decoration="none" family="微软雅黑" text-anchor="middle" size="13">+ undo() : void</text><text id="ProcessOnText1098" fill="#000000" font-size="13" x="104.0" y="45.825" font-family="微软雅黑" font-weight="bold" font-style="normal" text-decoration="none" family="微软雅黑" text-anchor="middle" size="13">+ redo() : void</text><text id="ProcessOnText1099" fill="#000000" font-size="13" x="104.0" y="62.075" font-family="微软雅黑" font-weight="bold" font-style="normal" text-decoration="none" family="微软雅黑" text-anchor="middle" size="13">- insert() : void</text><text id="ProcessOnText1100" fill="#000000" font-size="13" x="104.0" y="78.325" font-family="微软雅黑" font-weight="bold" font-style="normal" text-decoration="none" family="微软雅黑" text-anchor="middle" size="13">- erase() : void</text><text id="ProcessOnText1101" fill="#000000" font-size="13" x="104.0" y="94.575" font-family="微软雅黑" font-weight="bold" font-style="normal" text-decoration="none" family="微软雅黑" text-anchor="middle" size="13">- sendInsertSignal() : void</text><text id="ProcessOnText1102" fill="#000000" font-size="13" x="104.0" y="110.825" font-family="微软雅黑" font-weight="bold" font-style="normal" text-decoration="none" family="微软雅黑" text-anchor="middle" size="13">- sendEraseSignal() : void</text></g></g><g id="ProcessOnG1103" transform="matrix(1.0,0.0,0.0,1.0,940.0,1080.0)" opacity="1.0"><path id="ProcessOnPath1104" d="M0.0 4.0Q0.0 0.0 4.0 0.0L275.7799987792969 0.0Q279.7799987792969 0.0 279.7799987792969 4.0L279.7799987792969 172.0Q279.7799987792969 176.0 275.7799987792969 176.0L4.0 176.0Q0.0 176.0 0.0 172.0Z" stroke="#323232" stroke-width="2.0" stroke-dasharray="none" opacity="1.0" fill="#ffffff"/><path id="ProcessOnPath1105" d="M0.0 30.0L279.7799987792969 30.0M0.0 127.0L279.7799987792969 127.0" stroke="#323232" stroke-width="2.0" stroke-dasharray="none" opacity="1.0" fill="none"/><path id="ProcessOnPath1106" d="M0.0 0.0L279.7799987792969 0.0L279.7799987792969 176.0L0.0 176.0Z" stroke="none" stroke-width="0.0" stroke-dasharray="none" opacity="1.0" fill="none"/><g id="ProcessOnG1107" transform="matrix(1.0,0.0,0.0,1.0,10.0,6.875)"><text id="ProcessOnText1108" fill="#000000" font-size="13" x="128.88999938964844" y="13.325" font-family="微软雅黑" font-weight="bold" font-style="normal" text-decoration="none" family="微软雅黑" text-anchor="middle" size="13">ReplaceCommand</text></g><g id="ProcessOnG1109" transform="matrix(1.0,0.0,0.0,1.0,10.0,29.75)"><text id="ProcessOnText1110" fill="#000000" font-size="13" x="128.88999938964844" y="13.325" font-family="微软雅黑" font-weight="bold" font-style="normal" text-decoration="none" family="微软雅黑" text-anchor="middle" size="13">- visitor : std::shared_ptr&lt;SearchVisitor&gt;</text><text id="ProcessOnText1111" fill="#000000" font-size="13" x="128.88999938964844" y="29.575" font-family="微软雅黑" font-weight="bold" font-style="normal" text-decoration="none" family="微软雅黑" text-anchor="middle" size="13">- format : QString</text><text id="ProcessOnText1112" fill="#000000" font-size="13" x="128.88999938964844" y="45.825" font-family="微软雅黑" font-weight="bold" font-style="normal" text-decoration="none" family="微软雅黑" text-anchor="middle" size="13">- newString : QString</text><text id="ProcessOnText1113" fill="#000000" font-size="13" x="128.88999938964844" y="62.075" font-family="微软雅黑" font-weight="bold" font-style="normal" text-decoration="none" family="微软雅黑" text-anchor="middle" size="13">- invoker : TextFile *</text><text id="ProcessOnText1114" fill="#000000" font-size="13" x="128.88999938964844" y="78.325" font-family="微软雅黑" font-weight="bold" font-style="normal" text-decoration="none" family="微软雅黑" text-anchor="middle" size="13">- receiver ： std::shared_ptr&lt;TextStructur</text><text id="ProcessOnText1115" fill="#000000" font-size="13" x="128.88999938964844" y="94.575" font-family="微软雅黑" font-weight="bold" font-style="normal" text-decoration="none" family="微软雅黑" text-anchor="middle" size="13">e&gt;</text></g><g id="ProcessOnG1116" transform="matrix(1.0,0.0,0.0,1.0,10.0,127.125)"><text id="ProcessOnText1117" fill="#000000" font-size="13" x="128.88999938964844" y="13.325" font-family="微软雅黑" font-weight="bold" font-style="normal" text-decoration="none" family="微软雅黑" text-anchor="middle" size="13">+ operator()() : void</text><text id="ProcessOnText1118" fill="#000000" font-size="13" x="128.88999938964844" y="29.575" font-family="微软雅黑" font-weight="bold" font-style="normal" text-decoration="none" family="微软雅黑" text-anchor="middle" size="13">+ undo() : void</text><text id="ProcessOnText1119" fill="#000000" font-size="13" x="128.88999938964844" y="45.825" font-family="微软雅黑" font-weight="bold" font-style="normal" text-decoration="none" family="微软雅黑" text-anchor="middle" size="13">+ redo() : void</text></g></g><g id="ProcessOnG1120" transform="matrix(1.0,0.0,0.0,1.0,1618.0,417.0)" opacity="1.0"><path id="ProcessOnPath1121" d="M0.0 4.0Q0.0 0.0 4.0 0.0L266.0 0.0Q270.0 0.0 270.0 4.0L270.0 146.0Q270.0 150.0 266.0 150.0L4.0 150.0Q0.0 150.0 0.0 146.0Z" stroke="#323232" stroke-width="2.0" stroke-dasharray="none" opacity="1.0" fill="#ffffff"/><path id="ProcessOnPath1122" d="M0.0 30.0L270.0 30.0M0.0 62.0L270.0 62.0" stroke="#323232" stroke-width="2.0" stroke-dasharray="none" opacity="1.0" fill="none"/><path id="ProcessOnPath1123" d="M0.0 0.0L270.0 0.0L270.0 150.0L0.0 150.0Z" stroke="none" stroke-width="0.0" stroke-dasharray="none" opacity="1.0" fill="none"/><g id="ProcessOnG1124" transform="matrix(1.0,0.0,0.0,1.0,10.0,6.875)"><text id="ProcessOnText1125" fill="#000000" font-size="13" x="124.0" y="13.325" font-family="微软雅黑" font-weight="bold" font-style="normal" text-decoration="none" family="微软雅黑" text-anchor="middle" size="13">TextRow</text></g><g id="ProcessOnG1126" transform="matrix(1.0,0.0,0.0,1.0,10.0,36.875)"><text id="ProcessOnText1127" fill="#000000" font-size="13" x="124.0" y="13.325" font-family="微软雅黑" font-weight="bold" font-style="normal" text-decoration="none" family="微软雅黑" text-anchor="middle" size="13">- row : std::vector&lt;QChar&gt;</text></g><g id="ProcessOnG1128" transform="matrix(1.0,0.0,0.0,1.0,10.0,61.875)"><text id="ProcessOnText1129" fill="#000000" font-size="13" x="124.0" y="13.325" font-family="微软雅黑" font-weight="bold" font-style="normal" text-decoration="none" family="微软雅黑" text-anchor="middle" size="13">+ insert(int position, QChar cha)</text><text id="ProcessOnText1130" fill="#000000" font-size="13" x="124.0" y="29.575" font-family="微软雅黑" font-weight="bold" font-style="normal" text-decoration="none" family="微软雅黑" text-anchor="middle" size="13">+ insert(int position, QString str)</text><text id="ProcessOnText1131" fill="#000000" font-size="13" x="124.0" y="45.825" font-family="微软雅黑" font-weight="bold" font-style="normal" text-decoration="none" family="微软雅黑" text-anchor="middle" size="13">+ erase(int position)</text><text id="ProcessOnText1132" fill="#000000" font-size="13" x="124.0" y="62.075" font-family="微软雅黑" font-weight="bold" font-style="normal" text-decoration="none" family="微软雅黑" text-anchor="middle" size="13">+ erase(int begin, int end)</text><text id="ProcessOnText1133" fill="#000000" font-size="13" x="124.0" y="78.325" font-family="微软雅黑" font-weight="bold" font-style="normal" text-decoration="none" family="微软雅黑" text-anchor="middle" size="13">+ traverse(AbstractVisitor &amp;visitor)</text></g></g><g id="ProcessOnG1134" transform="matrix(1.0,0.0,0.0,1.0,1077.0,411.0)" opacity="1.0"><path id="ProcessOnPath1135" d="M0.0 4.0Q0.0 0.0 4.0 0.0L359.0 0.0Q363.0 0.0 363.0 4.0L363.0 152.0Q363.0 156.0 359.0 156.0L4.0 156.0Q0.0 156.0 0.0 152.0Z" stroke="#323232" stroke-width="2.0" stroke-dasharray="none" opacity="1.0" fill="#ffffff"/><path id="ProcessOnPath1136" d="M0.0 30.0L363.0 30.0M0.0 60.0L363.0 60.0" stroke="#323232" stroke-width="2.0" stroke-dasharray="none" opacity="1.0" fill="none"/><path id="ProcessOnPath1137" d="M0.0 0.0L363.0 0.0L363.0 156.0L0.0 156.0Z" stroke="none" stroke-width="0.0" stroke-dasharray="none" opacity="1.0" fill="none"/><g id="ProcessOnG1138" transform="matrix(1.0,0.0,0.0,1.0,10.0,6.875)"><text id="ProcessOnText1139" fill="#000000" font-size="13" x="170.5" y="13.325" font-family="微软雅黑" font-weight="bold" font-style="normal" text-decoration="none" family="微软雅黑" text-anchor="middle" size="13">TextStructure</text></g><g id="ProcessOnG1140" transform="matrix(1.0,0.0,0.0,1.0,10.0,36.875)"><text id="ProcessOnText1141" fill="#000000" font-size="13" x="170.5" y="13.325" font-family="微软雅黑" font-weight="bold" font-style="normal" text-decoration="none" family="微软雅黑" text-anchor="middle" size="13">- text : std::list&lt;TextRow&gt;</text></g><g id="ProcessOnG1142" transform="matrix(1.0,0.0,0.0,1.0,10.0,67.875)"><text id="ProcessOnText1143" fill="#000000" font-size="13" x="170.5" y="13.325" font-family="微软雅黑" font-weight="bold" font-style="normal" text-decoration="none" family="微软雅黑" text-anchor="middle" size="13">+ insert(std::pair&lt;int,int&gt; position, QChar character)</text><text id="ProcessOnText1144" fill="#000000" font-size="13" x="170.5" y="29.575" font-family="微软雅黑" font-weight="bold" font-style="normal" text-decoration="none" family="微软雅黑" text-anchor="middle" size="13">+ insert(std::pair&lt;int,int&gt; position, QString newString)</text><text id="ProcessOnText1145" fill="#000000" font-size="13" x="170.5" y="45.825" font-family="微软雅黑" font-weight="bold" font-style="normal" text-decoration="none" family="微软雅黑" text-anchor="middle" size="13">+ erase(std::pair&lt;int,int&gt; position)</text><text id="ProcessOnText1146" fill="#000000" font-size="13" x="170.5" y="62.075" font-family="微软雅黑" font-weight="bold" font-style="normal" text-decoration="none" family="微软雅黑" text-anchor="middle" size="13">+ erase(std::pair&lt;int,int&gt; begin, std::pair&lt;int,int&gt; end)</text><text id="ProcessOnText1147" fill="#000000" font-size="13" x="170.5" y="78.325" font-family="微软雅黑" font-weight="bold" font-style="normal" text-decoration="none" family="微软雅黑" text-anchor="middle" size="13">+ traverse(AbstractVisitor &amp;visitor)</text></g></g><g id="ProcessOnG1148"><path id="ProcessOnPath1149" d="M1440.0 515.5285269006641L1503.0 515.5285269006641L1503.0 691.0" stroke="#323232" stroke-width="2.0" stroke-dasharray="10.0 4.0" fill="none" marker-end="url(#ProcessOnMarker1150)"/></g><g id="ProcessOnG1152" transform="matrix(1.0,0.0,0.0,1.0,553.8899993896484,351.0)" opacity="1.0"><path id="ProcessOnPath1153" d="M0.0 4.0Q0.0 0.0 4.0 0.0L408.0 0.0Q412.0 0.0 412.0 4.0L412.0 459.0Q412.0 463.0 408.0 463.0L4.0 463.0Q0.0 463.0 0.0 459.0Z" stroke="#323232" stroke-width="2.0" stroke-dasharray="none" opacity="1.0" fill="#ffffff"/><path id="ProcessOnPath1154" d="M0.0 30.0L412.0 30.0M0.0 111.0L412.0 111.0" stroke="#323232" stroke-width="2.0" stroke-dasharray="none" opacity="1.0" fill="none"/><path id="ProcessOnPath1155" d="M0.0 0.0L412.0 0.0L412.0 463.0L0.0 463.0Z" stroke="none" stroke-width="0.0" stroke-dasharray="none" opacity="1.0" fill="none"/><g id="ProcessOnG1156" transform="matrix(1.0,0.0,0.0,1.0,10.0,6.875)"><text id="ProcessOnText1157" fill="#000000" font-size="13" x="195.0" y="13.325" font-family="微软雅黑" font-weight="bold" font-style="normal" text-decoration="none" family="微软雅黑" text-anchor="middle" size="13">TextFile</text></g><g id="ProcessOnG1158" transform="matrix(1.0,0.0,0.0,1.0,10.0,29.875)"><text id="ProcessOnText1159" fill="#000000" font-size="13" x="195.0" y="13.325" font-family="微软雅黑" font-weight="bold" font-style="normal" text-decoration="none" family="微软雅黑" text-anchor="middle" size="13">- isModified : bool</text><text id="ProcessOnText1160" fill="#000000" font-size="13" x="195.0" y="29.575" font-family="微软雅黑" font-weight="bold" font-style="normal" text-decoration="none" family="微软雅黑" text-anchor="middle" size="13">- url : Qurl</text><text id="ProcessOnText1161" fill="#000000" font-size="13" x="195.0" y="45.825" font-family="微软雅黑" font-weight="bold" font-style="normal" text-decoration="none" family="微软雅黑" text-anchor="middle" size="13">- text : std::shared_ptr&lt;TextStructure&gt;</text><text id="ProcessOnText1162" fill="#000000" font-size="13" x="195.0" y="62.075" font-family="微软雅黑" font-weight="bold" font-style="normal" text-decoration="none" family="微软雅黑" text-anchor="middle" size="13">- file : std::fstream</text><text id="ProcessOnText1163" fill="#000000" font-size="13" x="195.0" y="78.325" font-family="微软雅黑" font-weight="bold" font-style="normal" text-decoration="none" family="微软雅黑" text-anchor="middle" size="13">- historyList : std::list&lt;EditCommand*&gt;</text></g><g id="ProcessOnG1164" transform="matrix(1.0,0.0,0.0,1.0,10.0,108.25)"><text id="ProcessOnText1165" fill="#000000" font-size="13" x="195.0" y="13.325" font-family="微软雅黑" font-weight="bold" font-style="normal" text-decoration="none" family="微软雅黑" text-anchor="middle" size="13">+ saveFile(QUrl address)</text><text id="ProcessOnText1166" fill="#000000" font-size="13" x="195.0" y="29.575" font-family="微软雅黑" font-weight="bold" font-style="normal" text-decoration="none" family="微软雅黑" text-anchor="middle" size="13">+ close()</text><text id="ProcessOnText1167" fill="#000000" font-size="13" x="195.0" y="45.825" font-family="微软雅黑" font-weight="bold" font-style="normal" text-decoration="none" family="微软雅黑" text-anchor="middle" size="13">+ cut(int rowBegin, int colBegin, int rowEnd, int colEnd)</text><text id="ProcessOnText1168" fill="#000000" font-size="13" x="195.0" y="62.075" font-family="微软雅黑" font-weight="bold" font-style="normal" text-decoration="none" family="微软雅黑" text-anchor="middle" size="13">+ copy(int rowBegin, int colBegin, int rowEnd, int colEnd)</text><text id="ProcessOnText1169" fill="#000000" font-size="13" x="195.0" y="78.325" font-family="微软雅黑" font-weight="bold" font-style="normal" text-decoration="none" family="微软雅黑" text-anchor="middle" size="13">+ paste(int row, int column, QString newString)</text><text id="ProcessOnText1170" fill="#000000" font-size="13" x="195.0" y="94.575" font-family="微软雅黑" font-weight="bold" font-style="normal" text-decoration="none" family="微软雅黑" text-anchor="middle" size="13">+ search(QString format)</text><text id="ProcessOnText1171" fill="#000000" font-size="13" x="195.0" y="110.825" font-family="微软雅黑" font-weight="bold" font-style="normal" text-decoration="none" family="微软雅黑" text-anchor="middle" size="13">+ replace(QString format, QString newString)</text><text id="ProcessOnText1172" fill="#000000" font-size="13" x="195.0" y="127.075" font-family="微软雅黑" font-weight="bold" font-style="normal" text-decoration="none" family="微软雅黑" text-anchor="middle" size="13">+ insert(int row, int column, QChar character)</text><text id="ProcessOnText1173" fill="#000000" font-size="13" x="195.0" y="143.325" font-family="微软雅黑" font-weight="bold" font-style="normal" text-decoration="none" family="微软雅黑" text-anchor="middle" size="13">+ insert(int row, int column, QString newString)</text><text id="ProcessOnText1174" fill="#000000" font-size="13" x="195.0" y="159.575" font-family="微软雅黑" font-weight="bold" font-style="normal" text-decoration="none" family="微软雅黑" text-anchor="middle" size="13">+ erase(int row, int column)</text><text id="ProcessOnText1175" fill="#000000" font-size="13" x="195.0" y="175.825" font-family="微软雅黑" font-weight="bold" font-style="normal" text-decoration="none" family="微软雅黑" text-anchor="middle" size="13">+ erase(int rowBegin, int colBegin, int rowEnd, int colEnd)</text><text id="ProcessOnText1176" fill="#000000" font-size="13" x="195.0" y="192.075" font-family="微软雅黑" font-weight="bold" font-style="normal" text-decoration="none" family="微软雅黑" text-anchor="middle" size="13">+ undo()</text><text id="ProcessOnText1177" fill="#000000" font-size="13" x="195.0" y="208.325" font-family="微软雅黑" font-weight="bold" font-style="normal" text-decoration="none" family="微软雅黑" text-anchor="middle" size="13">+ redo()</text><text id="ProcessOnText1178" fill="#000000" font-size="13" x="195.0" y="224.575" font-family="微软雅黑" font-weight="bold" font-style="normal" text-decoration="none" family="微软雅黑" text-anchor="middle" size="13">--------------------------------------------------------------</text><text id="ProcessOnText1179" fill="#000000" font-size="13" x="195.0" y="240.825" font-family="微软雅黑" font-weight="bold" font-style="normal" text-decoration="none" family="微软雅黑" text-anchor="middle" size="13">signal:</text><text id="ProcessOnText1180" fill="#000000" font-size="13" x="195.0" y="257.075" font-family="微软雅黑" font-weight="bold" font-style="normal" text-decoration="none" family="微软雅黑" text-anchor="middle" size="13">+ insertCha(int row, int column, QChar cha)</text><text id="ProcessOnText1181" fill="#000000" font-size="13" x="195.0" y="273.325" font-family="微软雅黑" font-weight="bold" font-style="normal" text-decoration="none" family="微软雅黑" text-anchor="middle" size="13">+ newLine(int row, int column)</text><text id="ProcessOnText1182" fill="#000000" font-size="13" x="195.0" y="289.575" font-family="微软雅黑" font-weight="bold" font-style="normal" text-decoration="none" family="微软雅黑" text-anchor="middle" size="13">+ eraseCha(int row, int column)</text><text id="ProcessOnText1183" fill="#000000" font-size="13" x="195.0" y="305.825" font-family="微软雅黑" font-weight="bold" font-style="normal" text-decoration="none" family="微软雅黑" text-anchor="middle" size="13">+ eraseStr(int rowBegin, int colBegin, int rowEnd, int colEnd)</text><text id="ProcessOnText1184" fill="#000000" font-size="13" x="195.0" y="322.075" font-family="微软雅黑" font-weight="bold" font-style="normal" text-decoration="none" family="微软雅黑" text-anchor="middle" size="13">+ eraseLine(int row)</text><text id="ProcessOnText1185" fill="#000000" font-size="13" x="195.0" y="338.325" font-family="微软雅黑" font-weight="bold" font-style="normal" text-decoration="none" family="微软雅黑" text-anchor="middle" size="13">+ highlight(int rowBegin, int colBegin, int rowEnd, int colEnd)</text><text id="ProcessOnText1186" fill="#000000" font-size="13" x="195.0" y="354.575" font-family="微软雅黑" font-weight="bold" font-style="normal" text-decoration="none" family="微软雅黑" text-anchor="middle" size="13"></text></g></g><g id="ProcessOnG1187"><path id="ProcessOnPath1188" d="M965.0980443942397 706.0L1185.54902219712 706.0L1185.54902219712 706.0L1406.0 706.0" stroke="#323232" stroke-width="2.0" stroke-dasharray="10.0 4.0" fill="none" marker-end="url(#ProcessOnMarker1189)"/></g><g id="ProcessOnG1191"><path id="ProcessOnPath1192" d="M965.0980443942397 434.0L1021.0490221971198 434.0L1021.0490221971198 433.97330261553054L1077.0 433.97330261553054" stroke="#323232" stroke-width="2.0" stroke-dasharray="none" fill="none" marker-end="url(#ProcessOnMarker1193)"/></g><g id="ProcessOnG1195" transform="matrix(1.0,0.0,0.0,1.0,187.88999938964844,351.0)" opacity="1.0"><path id="ProcessOnPath1196" d="M0.0 4.0Q0.0 0.0 4.0 0.0L226.0 0.0Q230.0 0.0 230.0 4.0L230.0 169.0Q230.0 173.0 226.0 173.0L4.0 173.0Q0.0 173.0 0.0 169.0Z" stroke="#323232" stroke-width="2.0" stroke-dasharray="none" opacity="1.0" fill="#ffffff"/><path id="ProcessOnPath1197" d="M0.0 30.0L230.0 30.0M0.0 60.0L230.0 60.0" stroke="#323232" stroke-width="2.0" stroke-dasharray="none" opacity="1.0" fill="none"/><path id="ProcessOnPath1198" d="M0.0 0.0L230.0 0.0L230.0 173.0L0.0 173.0Z" stroke="none" stroke-width="0.0" stroke-dasharray="none" opacity="1.0" fill="none"/><g id="ProcessOnG1199" transform="matrix(1.0,0.0,0.0,1.0,10.0,6.875)"><text id="ProcessOnText1200" fill="#000000" font-size="13" x="104.0" y="13.325" font-family="微软雅黑" font-weight="bold" font-style="normal" text-decoration="none" family="微软雅黑" text-anchor="middle" size="13">Application</text></g><g id="ProcessOnG1201" transform="matrix(1.0,0.0,0.0,1.0,10.0,36.875)"><text id="ProcessOnText1202" fill="#000000" font-size="13" x="104.0" y="13.325" font-family="微软雅黑" font-weight="bold" font-style="normal" text-decoration="none" family="微软雅黑" text-anchor="middle" size="13">- openFiles : std::list&lt;TextFile&gt;</text></g><g id="ProcessOnG1203" transform="matrix(1.0,0.0,0.0,1.0,10.0,59.625)"><text id="ProcessOnText1204" fill="#000000" font-size="13" x="104.0" y="13.325" font-family="微软雅黑" font-weight="bold" font-style="normal" text-decoration="none" family="微软雅黑" text-anchor="middle" size="13">+addFile(QUrl address = QUrl())</text><text id="ProcessOnText1205" fill="#000000" font-size="13" x="104.0" y="29.575" font-family="微软雅黑" font-weight="bold" font-style="normal" text-decoration="none" family="微软雅黑" text-anchor="middle" size="13">+ save()</text><text id="ProcessOnText1206" fill="#000000" font-size="13" x="104.0" y="45.825" font-family="微软雅黑" font-weight="bold" font-style="normal" text-decoration="none" family="微软雅黑" text-anchor="middle" size="13">+ saveAs()</text><text id="ProcessOnText1207" fill="#000000" font-size="13" x="104.0" y="62.075" font-family="微软雅黑" font-weight="bold" font-style="normal" text-decoration="none" family="微软雅黑" text-anchor="middle" size="13">+ close()</text><text id="ProcessOnText1208" fill="#000000" font-size="13" x="104.0" y="78.325" font-family="微软雅黑" font-weight="bold" font-style="normal" text-decoration="none" family="微软雅黑" text-anchor="middle" size="13">+ closeAll()</text><text id="ProcessOnText1209" fill="#000000" font-size="13" x="104.0" y="94.575" font-family="微软雅黑" font-weight="bold" font-style="normal" text-decoration="none" family="微软雅黑" text-anchor="middle" size="13">+ saveAll()</text><text id="ProcessOnText1210" fill="#000000" font-size="13" x="104.0" y="110.825" font-family="微软雅黑" font-weight="bold" font-style="normal" text-decoration="none" family="微软雅黑" text-anchor="middle" size="13">+  currentFile() : QObject*</text></g></g><g id="ProcessOnG1211"><path id="ProcessOnPath1212" d="M435.30476487096246 424.0L485.4449996948242 424.0L485.4449996948242 423.0L553.8899993896484 423.0" stroke="#323232" stroke-width="2.0" stroke-dasharray="none" fill="none" marker-start="url(#ProcessOnMarker1213)" marker-end="url(#ProcessOnMarker1215)"/></g><g id="ProcessOnG1217" transform="matrix(1.0,0.0,0.0,1.0,187.88999938964844,717.0)" opacity="1.0"><path id="ProcessOnPath1218" d="M0.0 4.0Q0.0 0.0 4.0 0.0L226.0 0.0Q230.0 0.0 230.0 4.0L230.0 105.0Q230.0 109.0 226.0 109.0L4.0 109.0Q0.0 109.0 0.0 105.0Z" stroke="#323232" stroke-width="2.0" stroke-dasharray="none" opacity="1.0" fill="#ffffff"/><path id="ProcessOnPath1219" d="M0.0 30.0L230.0 30.0M0.0 60.0L230.0 60.0" stroke="#323232" stroke-width="2.0" stroke-dasharray="none" opacity="1.0" fill="none"/><path id="ProcessOnPath1220" d="M0.0 0.0L230.0 0.0L230.0 109.0L0.0 109.0Z" stroke="none" stroke-width="0.0" stroke-dasharray="none" opacity="1.0" fill="none"/><g id="ProcessOnG1221" transform="matrix(1.0,0.0,0.0,1.0,10.0,6.875)"><text id="ProcessOnText1222" fill="#000000" font-size="13" x="104.0" y="13.325" font-family="微软雅黑" font-weight="bold" font-style="normal" text-decoration="none" family="微软雅黑" text-anchor="middle" size="13">ClipBoard</text></g><g id="ProcessOnG1223" transform="matrix(1.0,0.0,0.0,1.0,10.0,36.875)"><text id="ProcessOnText1224" fill="#000000" font-size="13" x="104.0" y="13.325" font-family="微软雅黑" font-weight="bold" font-style="normal" text-decoration="none" family="微软雅黑" text-anchor="middle" size="13">- content : static QString</text></g><g id="ProcessOnG1225" transform="matrix(1.0,0.0,0.0,1.0,10.0,60.125)"><text id="ProcessOnText1226" fill="#000000" font-size="13" x="104.0" y="13.325" font-family="微软雅黑" font-weight="bold" font-style="normal" text-decoration="none" family="微软雅黑" text-anchor="middle" size="13"># ClipBoard()</text><text id="ProcessOnText1227" fill="#000000" font-size="13" x="104.0" y="29.575" font-family="微软雅黑" font-weight="bold" font-style="normal" text-decoration="none" family="微软雅黑" text-anchor="middle" size="13">+ instance() : static ClipBoard&amp;</text><text id="ProcessOnText1228" fill="#000000" font-size="13" x="104.0" y="45.825" font-family="微软雅黑" font-weight="bold" font-style="normal" text-decoration="none" family="微软雅黑" text-anchor="middle" size="13">- setContent(QString str)</text></g></g><g id="ProcessOnG1229"><path id="ProcessOnPath1230" d="M1219.0 1142.0L1319.0 1142.0L1319.0 989.0" stroke="#323232" stroke-width="2.0" stroke-dasharray="10.0 4.0" fill="none" marker-end="url(#ProcessOnMarker1231)"/></g><g id="ProcessOnG1233"><path id="ProcessOnPath1234" d="M553.8899993896484 763.0L485.4449996948242 763.0L485.4449996948242 763.0L417.0 763.0" stroke="#323232" stroke-width="2.0" stroke-dasharray="10.0 4.0" fill="none" marker-end="url(#ProcessOnMarker1235)"/></g><g id="ProcessOnG1237"><path id="ProcessOnPath1238" d="M1458.3047648709626 467.28459140804983L1529.0 467.28459140804983L1529.0 467.0L1618.0 467.0" stroke="#323232" stroke-width="2.0" stroke-dasharray="none" fill="none" marker-start="url(#ProcessOnMarker1239)" marker-end="url(#ProcessOnMarker1241)"/></g><g id="ProcessOnG1243"><path id="ProcessOnPath1244" d="M759.8899993896484 814.0L759.8899993896484 865.0L759.8899993896484 865.0L759.8899993896484 916.0" stroke="#323232" stroke-width="2.0" stroke-dasharray="none" fill="none" marker-end="url(#ProcessOnMarker1245)"/></g><g id="ProcessOnG1247"><path id="ProcessOnPath1248" d="M1618.0 517.0L1548.0 517.0L1548.0 675.7639320225002" stroke="#323232" stroke-width="2.0" stroke-dasharray="10.0 4.0" fill="none" marker-end="url(#ProcessOnMarker1249)"/></g><g id="ProcessOnG1251"><path id="ProcessOnPath1252" d="M474.0 1080.0L474.0 1037.5L759.8899993896484 1037.5L759.8899993896484 1010.2360679774998" stroke="#323232" stroke-width="2.0" stroke-dasharray="10.0 4.0" fill="none" marker-end="url(#ProcessOnMarker1253)"/></g><g id="ProcessOnG1255"><path id="ProcessOnPath1256" d="M759.8899993896484 1080.0L759.8899993896484 1037.5L759.8899993896484 1037.5L759.8899993896484 1010.2360679774998" stroke="#323232" stroke-width="2.0" stroke-dasharray="10.0 4.0" fill="none" marker-end="url(#ProcessOnMarker1257)"/></g><g id="ProcessOnG1259"><path id="ProcessOnPath1260" d="M1079.8899993896484 1080.0L1079.8899993896484 1037.5L759.8899993896484 1037.5L759.8899993896484 1010.2360679774998" stroke="#323232" stroke-width="2.0" stroke-dasharray="10.0 4.0" fill="none" marker-end="url(#ProcessOnMarker1261)"/></g></g></g></svg>